<?xml version="1.0" standalone="no"?>
<!DOCTYPE svg PUBLIC "-//W3C//DTD SVG 20010904//EN"
 "http://www.w3.org/TR/2001/REC-SVG-20010904/DTD/svg10.dtd">
<svg version="1.0" xmlns="http://www.w3.org/2000/svg"
 width="260.000000pt" height="260.000000pt" viewBox="0 0 260.000000 260.000000"
 preserveAspectRatio="xMidYMid meet">
<metadata>
Created by potrace 1.11, written by Peter Selinger 2001-2013
</metadata>
<g transform="translate(0.000000,260.000000) scale(0.100000,-0.100000)"
fill="#000000" stroke="none">
<path d="M969 1352 c0 -262 -4 -485 -8 -496 -4 -10 -18 -25 -32 -32 -21 -13 0
-14 186 -11 240 5 299 17 402 87 120 80 183 202 191 366 7 159 -26 266 -112
361 -101 111 -215 152 -434 152 -138 1 -144 2 -167 26 l-25 24 -1 -477z m319
193 c80 -10 141 -53 176 -122 38 -75 29 -212 -19 -285 -30 -45 -113 -87 -188
-95 l-55 -6 -4 254 c-2 140 -2 257 0 262 2 4 13 5 25 3 12 -3 42 -7 65 -11z"/>
<path d="M1903 1783 l-173 -3 0 -139 0 -139 29 29 c28 27 34 29 110 29 l81 0
0 -348 c0 -358 -1 -371 -40 -385 -8 -3 62 -5 155 -6 130 0 165 3 147 11 -12 6
-24 21 -27 32 -2 12 -6 173 -8 359 l-3 337 79 0 c85 0 113 -10 127 -43 6 -14
9 30 9 126 l1 147 -157 -2 c-87 -1 -236 -4 -330 -5z"/>
<path d="M240 1640 l0 -139 25 24 c22 23 32 25 110 25 l85 0 0 -341 c0 -222
-4 -347 -11 -360 -6 -11 -20 -24 -32 -29 -14 -6 41 -9 151 -9 l173 -1 -26 23
-26 22 -6 348 -6 347 91 0 c86 0 92 -1 111 -26 l21 -27 0 142 0 141 -330 0
-330 0 0 -140z"/>
</g>
</svg>
